<svg width="60" height="60" viewBox="0 0 60 60" fill="none" xmlns="http://www.w3.org/2000/svg">
<path fill-rule="evenodd" clip-rule="evenodd" d="M30 44.6667C38.1002 44.6667 44.6667 38.1002 44.6667 30C44.6667 21.8998 38.1002 15.3333 30 15.3333C21.8998 15.3333 15.3333 21.8998 15.3333 30C15.3333 38.1002 21.8998 44.6667 30 44.6667ZM33.0324 18.3864C34.3171 20.3174 35.2821 22.4384 35.8944 24.6667H40.7526C39.2256 21.5939 36.4202 19.2686 33.0324 18.3864ZM30 18.7344C31.3862 20.5204 32.4374 22.5306 33.1141 24.6667H26.8858C27.5626 22.5306 28.6138 20.5204 30 18.7344ZM33.9997 30C33.9797 29.1018 33.8963 28.2109 33.7522 27.3333H26.2478C26.1036 28.2109 26.0203 29.1018 26.0003 30C26.0203 30.8982 26.1036 31.7892 26.2478 32.6667H33.7522C33.8963 31.7892 33.9797 30.8982 33.9997 30ZM33.1141 35.3333H26.8858C27.5626 37.4694 28.6138 39.4797 30 41.2656C31.3862 39.4797 32.4374 37.4694 33.1141 35.3333ZM23.5499 32.6667C23.4248 31.7963 23.3521 30.9151 23.3336 30.0278C23.3332 30.0093 23.3332 29.9907 23.3336 29.9722C23.3521 29.0849 23.4248 28.2038 23.5499 27.3333H18.2974C18.1027 28.191 18 29.0835 18 30C18 30.9165 18.1027 31.809 18.2974 32.6667H23.5499ZM19.2474 35.3333H24.1056C24.7179 37.5616 25.6829 39.6826 26.9676 41.6136C23.5797 40.7314 20.7744 38.4061 19.2474 35.3333ZM35.8944 35.3333H40.7526C39.2256 38.4061 36.4202 40.7314 33.0324 41.6136C34.3171 39.6826 35.2821 37.5616 35.8944 35.3333ZM41.7026 32.6667H36.4501C36.5752 31.7963 36.6479 30.9151 36.6664 30.0278C36.6668 30.0093 36.6668 29.9907 36.6664 29.9722C36.6479 29.0849 36.5752 28.2038 36.4501 27.3333H41.7026C41.8972 28.191 42 29.0835 42 30C42 30.9165 41.8972 31.809 41.7026 32.6667ZM26.9676 18.3864C25.6829 20.3174 24.7179 22.4384 24.1056 24.6667H19.2474C20.7744 21.5939 23.5797 19.2686 26.9676 18.3864Z" fill="white"/>
</svg>
