<svg width="160" height="32" viewBox="0 0 160 32" fill="none" xmlns="http://www.w3.org/2000/svg">
<g clip-path="url(#clip0_759_4889)">
<path d="M69.4318 0.25136C69.4318 0.935477 69.4318 1.5767 69.4318 2.21791C69.4318 2.46928 69.5066 2.77936 69.3899 2.95471C69.2732 3.13007 68.9597 3.17297 68.727 3.26027C66.2054 4.20655 63.6832 5.15182 61.1606 6.09608C58.7277 7.00423 56.2956 7.91438 53.8642 8.82653C53.7998 8.84772 53.7461 8.89335 53.7146 8.95372H54.0071L61.4703 8.95899C61.8227 8.95899 61.8227 8.95899 61.8227 9.31422C61.8227 10.0269 61.8182 10.7389 61.8264 11.4516C61.8264 11.633 61.7763 11.7271 61.602 11.7978C58.431 13.0707 55.2615 14.3476 52.0935 15.6286C49.9489 16.4926 47.8043 17.3548 45.6597 18.2153C42.8004 19.3678 39.9428 20.521 37.087 21.675C33.4961 23.124 29.9026 24.5715 26.3067 26.0175C22.6479 27.4916 18.9886 28.9652 15.3289 30.4383C14.6398 30.7153 13.9576 31.0156 13.2521 31.2421C10.4272 32.149 7.37565 30.208 6.98065 27.2533C6.90584 26.6888 6.92604 26.1101 6.91856 25.5381C6.90808 24.7908 6.91856 24.0434 6.91182 23.2961C6.88863 21.5124 5.57943 20.1036 3.80939 20.023C2.61914 19.9696 1.4259 20.002 0.234153 20.0027C0.104729 20.0027 0.00971893 20.0027 0.00971893 19.8379C0.0261775 18.7173 -0.0650925 17.5801 0.0785455 16.4798C0.386021 14.0948 1.75432 12.491 3.96874 11.6142C4.83817 11.268 5.75486 11.0569 6.68739 10.988C6.89088 10.973 6.9208 10.8864 6.9208 10.7103C6.91706 9.18101 6.8804 7.65021 6.93277 6.11941C7.00758 3.95944 8.00183 2.3007 9.80852 1.14019C10.8559 0.469615 12.0095 0.237061 13.2386 0.237061C23.5172 0.24559 33.7961 0.246844 44.0752 0.240824H69.4318V0.25136ZM61.4329 3.05857C61.4277 3.03524 61.4217 3.01266 61.4165 2.99009H13.1967C12.9985 2.98352 12.8 2.99056 12.6027 3.01116C10.8073 3.25877 9.65441 4.59163 9.65067 6.41669C9.64768 7.78944 9.64768 9.16245 9.65067 10.5357C9.65067 10.6275 9.66189 10.7201 9.67012 10.8458H18.1792C18.094 10.911 17.9965 10.9581 17.8926 10.9842C15.6099 11.6892 13.3267 12.3951 11.0429 13.1021C10.5192 13.2639 9.99181 13.4581 9.45167 13.5408C8.79782 13.6409 8.12826 13.6424 7.46468 13.6786C6.55348 13.7275 5.66322 13.8758 4.8171 14.2317C3.56426 14.7596 2.87275 15.7043 2.74258 17.066C2.72238 17.2775 2.79495 17.3197 2.98871 17.2971C3.91338 17.1917 4.82384 17.282 5.68566 17.6305C8.03624 18.5803 9.39332 20.3263 9.60878 22.8724C9.71127 24.0893 9.67461 25.3214 9.64768 26.5451C9.61551 28.0059 11.2322 29.1453 12.6446 28.5688C16.4323 27.0245 20.2313 25.5095 24.0257 23.978C27.0605 22.7592 30.0951 21.538 33.1295 20.3143L47.0444 14.7021C49.398 13.7523 51.7523 12.803 54.1074 11.8543C54.1822 11.8234 54.257 11.779 54.3767 11.7195C54.338 11.7094 54.2988 11.7014 54.2592 11.6955C51.6423 11.6955 49.0239 11.697 46.404 11.7C46.2503 11.7042 46.0984 11.7353 45.9552 11.7918C43.4782 12.7145 41.0064 13.6447 38.5279 14.5629C38.3848 14.6075 38.2312 14.604 38.0902 14.5531C37.6451 14.3883 37.212 14.1934 36.7736 14.012L30.0031 11.2063C27.5568 10.1918 25.1092 9.17624 22.6604 8.15972L21.4814 7.67128C21.5765 7.64752 21.6763 7.65012 21.7701 7.67881C22.718 7.90459 23.6658 8.13037 24.613 8.36519C29.0872 9.46148 33.5617 10.5548 38.0364 11.645C38.2097 11.6859 38.3908 11.6781 38.5601 11.6225C39.6822 11.2176 40.7917 10.7946 41.9056 10.3769L52.9665 6.23682L60.4559 3.43638C60.7828 3.31145 61.1075 3.18426 61.4329 3.05857Z" fill="#FF000C"/>
<path d="M92.5913 17.611V17.8969C92.5913 22.2856 92.5913 26.6738 92.5913 31.0615C92.5913 31.2925 92.5629 31.3919 92.2921 31.3919C87.8872 31.3834 83.482 31.3834 79.0766 31.3919C77.8048 31.3919 76.533 31.3866 75.2672 31.3919C75.0338 31.3919 74.959 31.3264 74.959 31.0833C74.9665 26.668 74.9685 22.2528 74.965 17.8375C74.965 17.7622 74.9754 17.687 74.9814 17.5974H78.3195V28.7811H82.09V17.5974H85.4498V28.7834H89.2128V17.611H92.5913Z" fill="#FF000C"/>
<path d="M85.2354 4.99506C84.9431 5.72508 84.6503 6.45486 84.3571 7.18438C83.8932 8.33361 83.4249 9.48133 82.9701 10.6343C82.8997 10.8119 82.807 10.8601 82.6289 10.8563C82.0162 10.8466 81.4028 10.8481 80.7893 10.8563C80.6397 10.8563 80.5649 10.8165 80.505 10.6697C79.7749 8.84237 79.04 7.0173 78.3003 5.1945C78.2716 5.10929 78.2138 5.03706 78.1372 4.99054V14.0971H77.6749C76.8722 14.0971 76.0687 14.0895 75.2652 14.1016C75.0408 14.1016 74.9735 14.0391 74.9742 13.8096C74.9802 10.4555 74.9802 7.10135 74.9742 3.74724C74.9742 2.70413 74.9802 1.66177 74.9697 0.618665C74.9697 0.392883 75.0169 0.301066 75.269 0.303324C76.3911 0.31687 77.5133 0.31386 78.6355 0.303324C78.83 0.303324 78.9175 0.371058 78.9931 0.552436C79.8863 2.68632 80.7861 4.81694 81.6923 6.9443C81.7245 7.01956 81.7671 7.09482 81.8277 7.22126C82.0828 6.62444 82.3177 6.07881 82.5489 5.53242C83.2566 3.85511 83.9626 2.17681 84.6668 0.497495C84.6835 0.436046 84.7217 0.382705 84.7743 0.347199C84.8269 0.311693 84.8904 0.296389 84.9533 0.304076C86.1024 0.308592 87.2515 0.316118 88.3999 0.299561C88.6767 0.299561 88.6789 0.429008 88.6789 0.632212C88.6759 3.60399 88.6759 6.57578 88.6789 9.54756C88.6789 10.9775 88.6729 12.415 88.6789 13.8487C88.6789 14.0504 88.6191 14.0993 88.4298 14.0978C87.4879 14.0895 86.5468 14.0873 85.6057 14.0978C85.3753 14.0978 85.3162 14.0293 85.3169 13.802C85.3244 11.0927 85.3261 8.38178 85.3221 5.66939V5.01011L85.2354 4.99506Z" fill="#FF000C"/>
<path d="M118.722 31.3188V28.7298C118.974 28.7298 119.22 28.723 119.47 28.7298C119.537 28.7395 119.606 28.7243 119.664 28.6871C119.721 28.65 119.763 28.5932 119.783 28.5273C120.459 26.9209 120.956 25.2439 121.265 23.527C121.609 21.6218 121.783 19.6894 121.784 17.7531C121.784 17.7102 121.792 17.668 121.798 17.6025H131.511V28.726C131.871 28.726 132.197 28.7403 132.521 28.7208C132.759 28.7065 132.83 28.784 132.825 29.0218C132.809 29.7744 132.819 30.5323 132.819 31.312L118.722 31.3188ZM122.949 28.7087C123.029 28.7162 123.098 28.7283 123.162 28.7283C124.733 28.7283 126.304 28.7245 127.875 28.7336C128.104 28.7336 128.164 28.6643 128.164 28.437C128.155 25.8064 128.155 23.1758 128.164 20.5452C128.164 20.3194 128.12 20.2284 127.864 20.2336C126.994 20.2502 126.121 20.2397 125.246 20.2397C124.857 20.2397 124.864 20.2397 124.838 20.6378C124.707 22.6743 124.322 24.6862 123.693 26.6263C123.47 27.3194 123.207 27.9968 122.949 28.7087Z" fill="#FF000C"/>
<path d="M91.0566 7.34689C91.0656 6.0479 91.2063 4.87158 91.6903 3.76224C92.4923 1.91761 93.8553 0.724729 95.8049 0.252846C97.3947 -0.130982 98.9814 -0.0963618 100.518 0.478628C102.384 1.1778 103.592 2.54377 104.144 4.4456C104.765 6.58375 104.743 8.73545 103.828 10.7901C102.92 12.8221 101.294 13.96 99.1093 14.2874C97.9176 14.4665 96.7296 14.4304 95.5685 14.0925C93.5149 13.4942 92.1878 12.1244 91.4898 10.115C91.1733 9.18927 91.0716 8.22368 91.0566 7.34689ZM94.5556 7.10004C94.5458 8.17325 94.667 9.16142 95.1256 10.0886C95.6426 11.1347 96.4633 11.7316 97.6258 11.7925C98.8378 11.855 99.7594 11.341 100.374 10.2873C100.863 9.4459 101.015 8.5187 101.043 7.5644C101.077 6.44377 100.995 5.34045 100.477 4.31766C99.9188 3.21735 99.0495 2.60624 97.7957 2.61377C96.5418 2.62129 95.6658 3.21585 95.1211 4.32745C94.6857 5.21702 94.5503 6.17132 94.5556 7.10004Z" fill="#FF000C"/>
<path d="M145.768 7.01508C145.778 8.40815 145.594 9.78466 144.933 11.0573C144.019 12.8192 142.572 13.8788 140.636 14.2371C139.205 14.5012 137.779 14.4629 136.395 13.9669C134.684 13.3558 133.493 12.1674 132.856 10.4748C132.054 8.40304 132.04 6.10621 132.818 4.02498C133.595 1.88533 135.163 0.599131 137.391 0.171651C138.894 -0.117348 140.383 -0.0481089 141.826 0.511829C143.427 1.13348 144.512 2.28797 145.171 3.86468C145.589 4.86414 145.732 5.91854 145.768 7.01508ZM142.266 7.25817C142.266 7.11894 142.266 6.98046 142.266 6.84123C142.245 5.96369 142.098 5.11024 141.702 4.32226C141.123 3.16551 140.199 2.56644 138.897 2.61235C137.679 2.65449 136.842 3.27991 136.321 4.3614C135.99 5.05078 135.842 5.79135 135.797 6.54847C135.723 7.76618 135.797 8.96282 136.344 10.0857C136.849 11.1175 137.662 11.7264 138.813 11.7956C140.033 11.8709 140.962 11.3629 141.59 10.2957C142.141 9.35267 142.254 8.31709 142.266 7.25817Z" fill="#FF000C"/>
<path d="M156.655 17.5966H159.975C159.983 17.7163 159.996 17.8224 159.996 17.9345C159.996 22.3227 159.998 26.7111 160.003 31.0998C160.003 31.3376 159.921 31.3926 159.704 31.3903C158.789 31.3813 157.873 31.3813 156.957 31.3903C156.716 31.3903 156.636 31.3248 156.637 31.069C156.648 29.2446 156.637 27.4196 156.648 25.5945C156.648 25.3477 156.574 25.2935 156.341 25.2935C154.872 25.304 153.404 25.304 151.936 25.2935C151.727 25.2935 151.658 25.3364 151.659 25.5644C151.669 27.3978 151.659 29.2311 151.67 31.0652C151.67 31.3105 151.611 31.3956 151.354 31.3911C150.43 31.3755 149.506 31.374 148.582 31.3866C148.35 31.3866 148.291 31.3113 148.292 31.0908C148.3 29.6744 148.292 28.258 148.297 26.8416C148.297 23.8613 148.297 20.8807 148.297 17.8999V17.6109C148.354 17.5992 148.412 17.5909 148.47 17.5861C149.455 17.5861 150.439 17.5906 151.424 17.5815C151.628 17.5815 151.666 17.6568 151.665 17.8434C151.659 19.3487 151.665 20.8539 151.656 22.3538C151.656 22.5796 151.706 22.6481 151.941 22.6466C153.383 22.6345 154.825 22.6398 156.268 22.6398C156.642 22.6398 156.642 22.6398 156.642 22.253C156.642 20.8019 156.642 19.3507 156.642 17.8991C156.639 17.8058 156.647 17.7117 156.655 17.5966Z" fill="#FF000C"/>
<path d="M118.625 14.0812H115.263V8.01896H114.919C113.46 8.01896 112.002 8.02423 110.541 8.01294C110.326 8.01294 110.283 8.0739 110.284 8.27635C110.293 10.0826 110.292 11.8889 110.292 13.6951C110.292 14.0955 110.292 14.0962 109.903 14.0962C109.014 14.0962 108.124 14.0887 107.235 14.1008C106.999 14.1008 106.929 14.0308 106.929 13.7914C106.936 9.39572 106.936 4.99951 106.929 0.602799C106.929 0.377018 106.987 0.301758 107.22 0.301758C108.152 0.313799 109.085 0.313799 110.018 0.301758C110.235 0.301758 110.297 0.370997 110.296 0.584737C110.288 2.07038 110.296 3.55602 110.283 5.04091C110.283 5.29002 110.342 5.3713 110.595 5.36979C112.046 5.35926 113.497 5.35926 114.948 5.36979C115.222 5.36979 115.273 5.27798 115.271 5.0251C115.26 3.5658 115.265 2.1065 115.266 0.64645C115.266 0.544096 115.275 0.441742 115.28 0.33412C115.326 0.321603 115.374 0.312795 115.421 0.307779C116.423 0.307779 117.426 0.307779 118.427 0.307779C118.571 0.307779 118.634 0.361214 118.625 0.506466C118.622 0.566674 118.625 0.627635 118.625 0.688596C118.625 5.05822 118.625 9.42809 118.625 13.7982V14.0812Z" fill="#FF000C"/>
<path d="M152.889 2.98022C152.847 3.74938 152.808 4.48543 152.767 5.22072C152.663 7.09621 152.503 8.96343 151.944 10.7697C151.665 11.6728 151.265 12.5157 150.597 13.2013C149.975 13.8411 149.203 14.1556 148.325 14.1842C147.843 14.2 147.359 14.1466 146.877 14.1346C146.683 14.1293 146.634 14.0428 146.636 13.8584C146.645 13.024 146.645 12.1898 146.636 11.356C146.636 11.1302 146.682 11.0022 146.935 11.0549C146.969 11.0601 147.004 11.0619 147.038 11.0602C148.13 11.082 148.617 10.7885 148.958 9.7371C149.167 9.06723 149.31 8.37866 149.387 7.68099C149.675 5.32534 149.687 2.95313 149.743 0.58393C149.748 0.370191 149.806 0.303209 150.023 0.303961C153.253 0.309982 156.483 0.309982 159.714 0.303961C159.924 0.303961 159.996 0.358901 159.996 0.579414C159.99 5.00172 159.99 9.42452 159.996 13.8478C159.996 14.0428 159.943 14.1007 159.749 14.0992C158.808 14.0909 157.866 14.0894 156.925 14.0992C156.7 14.0992 156.634 14.0375 156.634 13.8057C156.64 10.2782 156.634 6.75002 156.638 3.22256C156.638 3.0171 156.591 2.95614 156.382 2.9584C155.311 2.96818 154.24 2.9584 153.165 2.9584C153.085 2.96743 153 2.97495 152.889 2.98022Z" fill="#FF000C"/>
<path d="M133.787 31.3835C133.964 30.8815 134.122 30.4345 134.279 29.9859C135.331 26.9539 136.385 23.9247 137.441 20.8982C137.801 19.8672 138.173 18.8406 138.529 17.8088C138.587 17.6387 138.672 17.583 138.845 17.583C139.977 17.589 141.108 17.589 142.239 17.583C142.415 17.583 142.494 17.6379 142.554 17.8088C143.501 20.5357 144.452 23.2612 145.407 25.9851C146.005 27.694 146.604 29.4034 147.202 31.1133C147.228 31.1886 147.248 31.2593 147.277 31.3519C147.235 31.3672 147.192 31.3781 147.148 31.3843C146.129 31.3843 145.11 31.3843 144.091 31.3918C143.896 31.3918 143.805 31.3271 143.746 31.1351C143.509 30.3645 143.247 29.6013 143.007 28.8314C142.952 28.6561 142.88 28.5816 142.686 28.5831C141.226 28.5906 139.767 28.5906 138.307 28.5831C138.134 28.5831 138.066 28.6516 138.018 28.8051C137.765 29.5983 137.508 30.3901 137.24 31.178C137.212 31.2616 137.102 31.376 137.029 31.3767C135.966 31.3835 134.906 31.3835 133.787 31.3835ZM142.111 26.0656C141.579 24.4325 141.059 22.8294 140.54 21.2264L140.465 21.2324C139.945 22.8339 139.424 24.4347 138.894 26.0656H142.111Z" fill="#FF000C"/>
<path d="M107.497 17.5853C108.598 17.5853 109.634 17.6063 110.669 17.5747C111.039 17.5627 111.208 17.6929 111.364 18.0112C112.337 20.0041 113.328 21.9873 114.313 23.9726C114.328 24.002 114.35 24.0276 114.398 24.0976C114.555 23.725 114.697 23.3878 114.84 23.0484C115.547 21.324 116.251 19.5987 116.952 17.8728C117.039 17.6568 117.146 17.5717 117.387 17.5785C118.337 17.5951 119.287 17.5853 120.237 17.5853H120.564C120.365 18.0579 120.185 18.4952 119.997 18.9294C118.583 22.207 117.175 25.4876 115.75 28.7607C115.203 30.0153 114.351 30.9884 112.973 31.3075C112.359 31.449 111.707 31.4452 111.072 31.458C110.436 31.4708 109.812 31.4257 109.184 31.3918C109.109 31.3873 108.979 31.294 108.979 31.2413C108.966 30.3043 108.969 29.3673 108.969 28.3814C109.135 28.407 109.273 28.428 109.411 28.4506C110.322 28.6011 111.23 28.6553 112.13 28.3836C112.188 28.3663 112.245 28.3454 112.3 28.3212C112.809 28.0992 112.85 27.984 112.599 27.4933C110.969 24.3188 109.338 21.1446 107.707 17.9706C107.647 17.8577 107.585 17.7471 107.497 17.5853Z" fill="#FF000C"/>
<path d="M95.0028 28.4024C95.4644 28.4566 95.9155 28.5251 96.3696 28.5574C96.9741 28.6003 97.5778 28.5755 98.1591 28.373C98.2982 28.3276 98.4313 28.2654 98.5556 28.1879C98.8242 28.0133 98.8331 27.9403 98.6888 27.6611C97.5416 25.4349 96.396 23.2087 95.2519 20.9825C94.7292 19.9664 94.2056 18.9504 93.6809 17.9344C93.63 17.8366 93.5889 17.7335 93.5312 17.6055C93.6218 17.5972 93.6854 17.5852 93.749 17.5852C94.7963 17.5852 95.8384 17.5905 96.8836 17.5852C97.0691 17.5852 97.1686 17.6304 97.2576 17.811C98.2466 19.8257 99.2483 21.8352 100.25 23.8454C100.284 23.9131 100.325 23.9771 100.384 24.0809C100.424 24.0183 100.461 23.9535 100.494 23.8868C101.335 21.8437 102.177 19.8006 103.02 17.7576C103.04 17.7158 103.071 17.6795 103.108 17.6515C103.145 17.6236 103.189 17.6047 103.234 17.5965C104.305 17.5875 105.375 17.592 106.446 17.5965C106.482 17.603 106.517 17.6131 106.551 17.6266C106.464 17.8373 106.384 18.0435 106.296 18.246C105.134 20.9438 103.971 23.6414 102.807 26.3387C102.408 27.2614 102.03 28.1954 101.585 29.0955C100.837 30.6045 99.6209 31.4384 97.9189 31.4625C97.0137 31.4753 96.1078 31.4279 95.2018 31.4075C95.0754 31.4075 94.9661 31.4 94.9676 31.2156C94.9744 30.3208 94.9676 29.4259 94.9729 28.5311C94.9779 28.4872 94.9879 28.444 95.0028 28.4024Z" fill="#FF000C"/>
<path d="M131.193 0.328914V2.9683H125.487C125.155 2.9683 125.153 2.9683 125.153 3.30998C125.153 6.79454 125.153 10.2786 125.153 13.7621C125.153 14.0978 125.153 14.0986 124.814 14.0986C123.898 14.0986 122.983 14.0933 122.068 14.1031C121.858 14.1031 121.787 14.0496 121.787 13.8269C121.793 9.41159 121.793 4.99807 121.787 0.586305C121.787 0.424495 121.792 0.308594 122.012 0.308594C125.025 0.314615 128.039 0.31612 131.053 0.313109C131.1 0.315834 131.147 0.32111 131.193 0.328914Z" fill="#FF000C"/>
<path d="M69.4253 18.6375V19.9779H50.8833C50.8833 19.5858 50.8765 19.1801 50.8922 18.7737C50.8922 18.7255 51.0149 18.6465 51.083 18.6435C51.4197 18.6284 51.7563 18.633 52.093 18.633H69.1373L69.4253 18.6375Z" fill="#FF000C"/>
<path d="M36.6633 24.3739H36.9969C42.9025 24.3739 48.8084 24.3739 54.7145 24.3739C55.301 24.3739 55.212 24.2881 55.2157 24.8872C55.2157 25.1611 55.2906 25.5239 55.1454 25.6819C55.0212 25.8196 54.6434 25.7323 54.3779 25.7323C48.6014 25.7323 42.825 25.7323 37.0485 25.7323C36.5825 25.7323 36.6745 25.7444 36.664 25.3372C36.658 25.0294 36.6633 24.7186 36.6633 24.3739Z" fill="#FF000C"/>
<path d="M22.4271 30.1223H40.9803C40.9803 30.5378 40.9848 30.9427 40.9743 31.3468C40.9743 31.3882 40.8943 31.4454 40.8412 31.4635C40.7734 31.4768 40.704 31.4796 40.6355 31.4717H22.7847C22.4278 31.4717 22.4278 31.4717 22.4271 31.121C22.4263 30.7997 22.4271 30.4806 22.4271 30.1223Z" fill="#FF000C"/>
<path d="M18.4547 23.8019C15.6006 23.7794 13.3368 21.447 13.3735 18.5337C13.3821 17.8487 13.5265 17.1723 13.7984 16.5442C14.0702 15.9161 14.4641 15.3489 14.9567 14.8759C15.4494 14.403 16.0309 14.0337 16.6673 13.7899C17.3037 13.546 17.9821 13.4325 18.6627 13.4559C21.3746 13.5432 23.6002 15.8642 23.574 18.6489C23.5434 21.517 21.2586 23.8238 18.4547 23.8019ZM13.9899 18.922C13.9793 18.9625 13.9723 19.0038 13.969 19.0455C14.052 20.0474 14.4657 20.9926 15.1443 21.7308C15.1862 21.7774 15.3321 21.7812 15.3964 21.7451C15.6348 21.6109 15.8647 21.4618 16.0847 21.2988C16.1146 21.2702 16.1372 21.2347 16.1502 21.1953C16.1633 21.1559 16.1664 21.1139 16.1595 21.073C15.9393 20.4332 15.8045 19.7668 15.7585 19.0914C15.7532 19.0312 15.6687 18.9288 15.6193 18.9281C15.0829 18.9175 14.5413 18.922 13.9899 18.922ZM22.998 18.922C22.4182 18.922 21.8758 18.9175 21.3342 18.9296C21.2826 18.9296 21.2003 19.0236 21.1846 19.0861C21.0424 19.7454 20.907 20.4062 20.7843 21.0692C20.7822 21.1138 20.7901 21.1582 20.8075 21.1993C20.8249 21.2403 20.8512 21.2769 20.8846 21.3063C21.0968 21.4692 21.3194 21.6178 21.5511 21.7511C21.5909 21.769 21.6344 21.7768 21.6778 21.7738C21.7213 21.7708 21.7633 21.757 21.8002 21.7338C22.5184 20.9556 22.9015 20.0299 22.995 18.922H22.998ZM13.963 18.341C14.542 18.341 15.0852 18.3456 15.6261 18.3343C15.6762 18.3343 15.7637 18.2342 15.7667 18.177C15.8113 17.4928 15.9451 16.8174 16.1647 16.1683C16.169 16.1272 16.1635 16.0856 16.1485 16.0471C16.1335 16.0086 16.1096 15.9743 16.0787 15.947C15.8632 15.7905 15.6298 15.6633 15.4099 15.5075C15.2789 15.4127 15.1959 15.4322 15.1106 15.5534C14.961 15.7619 14.7829 15.9575 14.6475 16.1773C14.2336 16.8252 13.9974 17.5717 13.963 18.341ZM22.9673 18.3313C23.0129 17.4853 22.3808 15.9861 21.7771 15.5045C21.7292 15.4661 21.6027 15.4804 21.5399 15.5165C21.3068 15.648 21.0819 15.7937 20.8666 15.953C20.8349 15.9846 20.8109 16.0231 20.7964 16.0655C20.7819 16.1079 20.7772 16.1531 20.7828 16.1976C20.8958 16.7553 21.0417 17.307 21.1449 17.8669C21.2302 18.3275 21.2107 18.3313 21.6835 18.3313H22.9673ZM20.6093 18.3313C20.5718 17.6027 20.4596 16.9239 20.203 16.2992C19.7542 16.382 19.3434 16.4663 18.9312 16.5303C18.7816 16.5544 18.7577 16.6281 18.7592 16.7561C18.7637 17.2159 18.7592 17.675 18.7592 18.1341C18.7648 18.1998 18.7759 18.265 18.7921 18.329L20.6093 18.3313ZM19.7003 18.9258C19.4504 18.9258 19.1998 18.9318 18.9522 18.9258C18.8026 18.9213 18.7554 18.9808 18.7569 19.1245C18.7622 19.5934 18.7532 20.0622 18.7674 20.5296C18.7773 20.5726 18.7976 20.6124 18.8264 20.6456C18.8552 20.6788 18.8918 20.7044 18.9327 20.72C19.3001 20.8111 19.6719 20.8856 20.0444 20.9496C20.1073 20.9601 20.2344 20.8984 20.2457 20.851C20.3751 20.2782 20.4881 19.7025 20.6048 19.1268C20.6392 18.9567 20.5524 18.9198 20.4013 18.9258C20.1664 18.9311 19.9337 18.9243 19.7003 18.9243V18.9258ZM18.1794 18.329C18.1794 17.766 18.1794 17.2061 18.1741 16.6462C18.1741 16.6093 18.0993 16.5506 18.0544 16.5408C17.6258 16.4565 17.1956 16.3798 16.7385 16.2962C16.5088 16.9397 16.3383 17.6065 16.3547 18.3282L18.1794 18.329ZM16.3487 18.9311C16.3559 19.5912 16.4767 20.2451 16.7056 20.8638C16.7228 20.9127 16.8552 20.9571 16.9248 20.945C17.2884 20.8818 17.6475 20.7945 18.0118 20.729C18.1435 20.7072 18.1876 20.6643 18.1831 20.5334C18.1741 20.282 18.1794 20.0306 18.1786 19.7808V18.9296L16.3487 18.9311ZM18.7809 14.1272V15.9831L19.9748 15.7415C19.6889 15.1279 19.2831 14.5783 18.7816 14.1257L18.7809 14.1272ZM18.7809 21.2687V23.1381C19.2993 22.6678 19.6562 22.1515 19.9778 21.5215L18.7809 21.2687ZM18.1524 23.1276V21.2702L16.9772 21.5163C17.2597 22.1255 17.6591 22.6726 18.1524 23.1261V23.1276ZM18.1629 14.204L18.1001 14.1731C17.627 14.6196 17.2477 15.157 16.9846 15.7536L18.1629 15.9839V14.204ZM21.2466 22.2328C21.0155 22.0867 20.8097 21.9498 20.5958 21.8263C20.5692 21.8199 20.5415 21.8205 20.5152 21.8282C20.489 21.8359 20.4652 21.8503 20.4462 21.87C20.2142 22.2403 19.9913 22.6166 19.7639 22.9936C20.1469 22.9545 20.8307 22.6113 21.2466 22.2328ZM19.7377 14.2243C19.9898 14.6427 20.212 15.0183 20.4462 15.3863C20.4705 15.4054 20.4992 15.418 20.5297 15.423C20.5601 15.428 20.5914 15.4252 20.6205 15.4149C20.8277 15.2968 21.026 15.162 21.2616 15.0115C20.813 14.6463 20.2941 14.3783 19.7377 14.2243ZM15.6874 15.01C15.9253 15.1605 16.1288 15.299 16.3405 15.4224C16.3666 15.4307 16.3944 15.4322 16.4213 15.4267C16.4481 15.4211 16.4731 15.4088 16.4939 15.3908C16.728 15.0243 16.9532 14.651 17.2106 14.2311C16.6315 14.3831 16.1655 14.645 15.6874 15.013V15.01ZM15.6874 22.2418C16.1342 22.613 16.656 22.8819 17.2166 23.0298C16.939 22.5895 16.6929 22.2019 16.425 21.7774L15.6874 22.2418Z" fill="#FF000C"/>
</g>
<defs>
<clipPath id="clip0_759_4889">
<rect width="160" height="31.4754" fill="white"/>
</clipPath>
</defs>
</svg>
